<svg xmlns="http://www.w3.org/2000/svg" version="1.1" height="272" width="392" viewBox="0 0 392 272" class="diagram" text-anchor="middle" font-family="monospace" font-size="13px" stroke-linecap="round">
<path d="M 112,256 L 232,16" fill="none" stroke="black"/>
<path d="M 160,256 L 280,16" fill="none" stroke="black"/>
<g class="text">
<text x="256" y="20">/////</text>
<text x="80" y="36">&lt;&lt;&lt;&lt;&lt;&lt;&lt;</text>
<text x="248" y="36">:::::</text>
<text x="312" y="36">&gt;&gt;&gt;&gt;&gt;&gt;&gt;</text>
<text x="72" y="52">&lt;:::::&lt;</text>
<text x="240" y="52">:::::</text>
<text x="320" y="52">&gt;:::::&gt;</text>
<text x="64" y="68">&lt;:::::&lt;</text>
<text x="232" y="68">:::::</text>
<text x="328" y="68">&gt;:::::&gt;</text>
<text x="56" y="84">&lt;:::::&lt;</text>
<text x="224" y="84">:::::</text>
<text x="336" y="84">&gt;:::::&gt;</text>
<text x="48" y="100">&lt;:::::&lt;</text>
<text x="216" y="100">:::::</text>
<text x="344" y="100">&gt;:::::&gt;</text>
<text x="40" y="116">&lt;:::::&lt;</text>
<text x="208" y="116">:::::</text>
<text x="352" y="116">&gt;:::::&gt;</text>
<text x="32" y="132">&lt;:::::&lt;</text>
<text x="200" y="132">:::::</text>
<text x="360" y="132">&gt;:::::&gt;</text>
<text x="40" y="148">&lt;:::::&lt;</text>
<text x="192" y="148">:::::</text>
<text x="352" y="148">&gt;:::::&gt;</text>
<text x="48" y="164">&lt;:::::&lt;</text>
<text x="184" y="164">:::::</text>
<text x="344" y="164">&gt;:::::&gt;</text>
<text x="56" y="180">&lt;:::::&lt;</text>
<text x="176" y="180">:::::</text>
<text x="336" y="180">&gt;:::::&gt;</text>
<text x="64" y="196">&lt;:::::&lt;</text>
<text x="168" y="196">:::::</text>
<text x="328" y="196">&gt;:::::&gt;</text>
<text x="72" y="212">&lt;:::::&lt;</text>
<text x="160" y="212">:::::</text>
<text x="320" y="212">&gt;:::::&gt;</text>
<text x="80" y="228">&lt;&lt;&lt;&lt;&lt;&lt;&lt;</text>
<text x="152" y="228">:::::</text>
<text x="312" y="228">&gt;&gt;&gt;&gt;&gt;&gt;&gt;</text>
<text x="144" y="244">:::::</text>
<text x="136" y="260">/////</text>
</g>
</svg>
